<svg width="36" height="24" viewBox="0 0 36 24" fill="none" xmlns="http://www.w3.org/2000/svg">
<g clip-path="url(#clip0_8614_631)">
<path d="M0 0H36V24.0003H0V0Z" fill="white"/>
<path d="M20.25 0H15.75V9.74996H0V14.25H15.75V23.9999H20.25V14.25H36V9.74996H20.25V0Z" fill="#D80027"/>
<path d="M27.6871 16.1738L35.9991 20.7917V16.1738H27.6871ZM21.9121 16.1738L35.9991 23.9999V21.7869L25.8957 16.1738H21.9121ZM32.2468 23.9999L21.9121 18.2579V23.9999H32.2468Z" fill="#0052B4"/>
<path d="M21.9121 16.1738L35.9991 23.9999V21.7869L25.8957 16.1738H21.9121Z" fill="white"/>
<path d="M21.9121 16.1738L35.9991 23.9999V21.7869L25.8957 16.1738H21.9121Z" fill="#D80027"/>
<path d="M6.3521 16.1733L0 19.7023V16.1733H6.3521ZM14.087 17.1685V23.9995H1.79234L14.087 17.1685Z" fill="#0052B4"/>
<path d="M10.1034 16.1738L0 21.7869V23.9999L14.087 16.1738H10.1034Z" fill="#D80027"/>
<path d="M8.31199 7.82607L0 3.20822V7.82607H8.31199ZM14.087 7.82607L0 0V2.21302L10.1034 7.82607H14.087ZM3.7523 0L14.087 5.74201V0H3.7523Z" fill="#0052B4"/>
<path d="M14.087 7.82607L0 0V2.21302L10.1034 7.82607H14.087Z" fill="white"/>
<path d="M14.087 7.82607L0 0V2.21302L10.1034 7.82607H14.087Z" fill="#D80027"/>
<path d="M29.647 7.82614L35.9991 4.29715V7.82614H29.647ZM21.9121 6.83094V0H34.2067L21.9121 6.83094Z" fill="#0052B4"/>
<path d="M25.8957 7.82607L35.9991 2.21302V0L21.9121 7.82607H25.8957Z" fill="#D80027"/>
</g>
<defs>
<clipPath id="clip0_8614_631">
<rect width="36" height="24" rx="4" fill="white"/>
</clipPath>
</defs>
</svg>
