<svg width="22" height="22" viewBox="0 0 22 22" fill="none" xmlns="http://www.w3.org/2000/svg">
<path d="M8.25 11L10.0833 12.8333L13.75 9.16667M2.75 11C2.75 12.0834 2.96339 13.1562 3.37799 14.1571C3.7926 15.1581 4.40029 16.0675 5.16637 16.8336C5.93245 17.5997 6.84193 18.2074 7.84286 18.622C8.8438 19.0366 9.91659 19.25 11 19.25C12.0834 19.25 13.1562 19.0366 14.1571 18.622C15.1581 18.2074 16.0675 17.5997 16.8336 16.8336C17.5997 16.0675 18.2074 15.1581 18.622 14.1571C19.0366 13.1562 19.25 12.0834 19.25 11C19.25 9.91659 19.0366 8.8438 18.622 7.84286C18.2074 6.84193 17.5997 5.93245 16.8336 5.16637C16.0675 4.40029 15.1581 3.7926 14.1571 3.37799C13.1562 2.96339 12.0834 2.75 11 2.75C9.91659 2.75 8.8438 2.96339 7.84286 3.37799C6.84193 3.7926 5.93245 4.40029 5.16637 5.16637C4.40029 5.93245 3.7926 6.84193 3.37799 7.84286C2.96339 8.8438 2.75 9.91659 2.75 11Z" stroke="white" stroke-width="1.5" stroke-linecap="round" stroke-linejoin="round"/>
</svg>
